<?xml version="1.0" encoding="UTF-8"?>
<svg id="Layer_1" xmlns="http://www.w3.org/2000/svg" version="1.1" viewBox="0 0 1080 1080">
  <!-- Generator: Adobe Illustrator 29.4.0, SVG Export Plug-In . SVG Version: 2.1.0 Build 152)  -->
  <defs>
    <style>
      .st0 {
        fill: orange;
      }

      .st1 {
        isolation: isolate;
      }

      .st2 {
        fill: #0033a0;
      }
    </style>
  </defs>
  <g id="Layer_2">
    <rect class="st0" width="1080" height="1080"/>
  </g>
  <g id="Layer_11">
    <g class="st1">
      <g class="st1">
        <g class="st1">
          <g class="st1">
            <g class="st1">
              <g class="st1">
                <g class="st1">
                  <g class="st1">
                    <path class="st2" d="M373.85,499.57h-62.44l-76.23-132.86v132.86h-74.78V209.52h65.34l73.33,126.69v-126.69h74.78v290.04Z"/>
                    <path class="st2" d="M600.72,499.57h-74.78v-78.05h-47.92v78.05h-74.78v-242.49c0-34.49,18.15-47.55,51.18-47.55h146.29v290.04ZM525.94,355.82v-79.86h-47.92v79.86h47.92Z"/>
                  </g>
                </g>
              </g>
            </g>
          </g>
        </g>
      </g>
      <g class="st1">
        <g class="st1">
          <g class="st1">
            <g class="st1">
              <g class="st1">
                <g class="st1">
                  <g class="st1">
                    <path class="st2" d="M373.85,878.57h-62.44l-76.23-132.86v132.86h-74.78v-290.04h65.34l73.33,126.69v-126.69h74.78v290.04Z"/>
                    <path class="st2" d="M600.72,878.57h-74.78v-78.05h-47.92v78.05h-74.78v-242.49c0-34.49,18.15-47.55,51.18-47.55h146.29v290.04ZM525.94,734.82v-79.86h-47.92v79.86h47.92Z"/>
                  </g>
                </g>
              </g>
            </g>
          </g>
        </g>
      </g>
    </g>
    <g class="st1">
      <g class="st1">
        <g class="st1">
          <g class="st1">
            <g class="st1">
              <g class="st1">
                <g class="st1">
                  <g class="st1">
                    <path class="st2" d="M623.45,314.68l-4.29-28.88c23.82,0,47.67-.9,71.51-2.75,4.76-16.5,10.48-38.51,17.16-66.01l25.74,8.25c9.52,3.67,9.52,7.35,0,11l-12.87,44.01c16.2-1.83,32.9-5.03,50.06-9.63l7.15,28.88c-26.71,5.5-48.63,8.72-65.79,9.63-15.26,46.76-37.68,97.64-67.22,152.66l-28.61-13.75c29.54-50.41,51-95.8,64.36-136.15-15.26,1.85-34.33,2.75-57.21,2.75ZM833.7,344.93c10.48,1.85,11.44,5.5,2.86,11v79.77c23.82,7.35,48.63,17.43,74.38,30.26l-17.16,26.13c-20.98-11.9-40.05-20.63-57.21-26.13-2.86,19.25-9.07,33.48-18.59,42.63-11.44,11-27.18,16.5-47.2,16.5-26.71,0-45.3-5.05-55.78-15.13-9.54-9.18-14.3-21.08-14.3-35.76,0-11.9,4.76-22.46,14.3-31.63,12.38-11.9,30.51-17.88,54.35-17.88,16.2,0,29.07,1.38,38.62,4.13v-83.89h25.75ZM769.33,449.45c-15.26,0-25.75,2.75-31.47,8.25-4.78,4.6-7.15,10.1-7.15,16.5s1.9,11.48,5.72,15.13c5.72,5.5,15.73,8.25,30.04,8.25,13.34,0,22.88-2.75,28.61-8.25,8.58-8.25,12.87-19.71,12.87-34.38-11.44-3.65-24.31-5.5-38.62-5.5ZM817.96,270.67c26.68,8.25,58.64,19.25,95.83,33.01l-12.87,28.88c-40.05-16.5-71.51-27.96-94.4-34.38l11.44-27.51Z"/>
                  </g>
                </g>
              </g>
            </g>
          </g>
        </g>
      </g>
      <g class="st1">
        <g class="st1">
          <g class="st1">
            <g class="st1">
              <g class="st1">
                <g class="st1">
                  <g class="st1">
                    <path class="st2" d="M623.45,665.77l-4.29-28.88c23.82,0,47.67-.9,71.51-2.75,4.76-16.5,10.48-38.51,17.16-66.01l25.74,8.25c9.52,3.67,9.52,7.35,0,11l-12.87,44.01c16.2-1.83,32.9-5.03,50.06-9.63l7.15,28.88c-26.71,5.5-48.63,8.72-65.79,9.63-15.26,46.76-37.68,97.64-67.22,152.66l-28.61-13.75c29.54-50.41,51-95.8,64.36-136.15-15.26,1.85-34.33,2.75-57.21,2.75ZM833.7,696.02c10.48,1.85,11.44,5.5,2.86,11v79.77c23.82,7.35,48.63,17.43,74.38,30.26l-17.16,26.13c-20.98-11.9-40.05-20.63-57.21-26.13-2.86,19.25-9.07,33.48-18.59,42.63-11.44,11-27.18,16.5-47.2,16.5-26.71,0-45.3-5.05-55.78-15.13-9.54-9.18-14.3-21.08-14.3-35.76,0-11.9,4.76-22.46,14.3-31.63,12.38-11.9,30.51-17.88,54.35-17.88,16.2,0,29.07,1.38,38.62,4.13v-83.89h25.75ZM769.33,800.54c-15.26,0-25.75,2.75-31.47,8.25-4.78,4.6-7.15,10.1-7.15,16.5s1.9,11.48,5.72,15.13c5.72,5.5,15.73,8.25,30.04,8.25,13.34,0,22.88-2.75,28.61-8.25,8.58-8.25,12.87-19.71,12.87-34.38-11.44-3.65-24.31-5.5-38.62-5.5ZM817.96,621.76c26.68,8.25,58.64,19.25,95.83,33.01l-12.87,28.88c-40.05-16.5-71.51-27.96-94.4-34.38l11.44-27.51Z"/>
                  </g>
                </g>
              </g>
            </g>
          </g>
        </g>
      </g>
    </g>
  </g>
</svg>